<svg xmlns="http://www.w3.org/2000/svg" width="745.352" height="693.439" viewBox="-72 -72 559.014 520.079"><g stroke="#000" stroke-linecap="round" stroke-linejoin="round" stroke-miterlimit="10" stroke-width=".4"><g fill="#2463CB" stroke="none" font-family="&quot;Comic Sans MS&quot;, &quot;Comic Sans&quot;, cursive" font-weight="400"><text x="-11" y="8" font-size="22" transform="matrix(.75 0 0 .75 -21.317 -60.269)">R</text><text x="2.828" y="11.305" font-size="15.4" transform="matrix(.75 0 0 .75 -21.317 -60.269)">1</text></g><g fill="#DF4949" stroke="none" font-family="&quot;Comic Sans MS&quot;, &quot;Comic Sans&quot;, cursive" font-weight="400"><text x="-16.5" y="8" font-size="22" transform="matrix(.75 0 0 .75 218.682 -60.269)">r</text><text x="-5.93" y="11.305" font-size="15.4" transform="matrix(.75 0 0 .75 218.682 -60.269)">A</text><text x="5.336" y="11.305" font-size="15.4" transform="matrix(.75 0 0 .75 218.682 -60.269)">B</text></g><g fill="#2463CB" stroke="none" font-family="&quot;Comic Sans MS&quot;, &quot;Comic Sans&quot;, cursive" font-weight="400"><text x="-16" y="8" font-size="22" transform="matrix(.75 0 0 .75 458.684 -60.269)">V</text><text x="-1.695" y="11.305" font-size="15.4" transform="matrix(.75 0 0 .75 458.684 -60.269)">t</text><text x="5.563" y="11.305" font-size="15.4" transform="matrix(.75 0 0 .75 458.684 -60.269)">h</text></g><g fill="#DF4949" stroke="none" font-family="&quot;Comic Sans MS&quot;, &quot;Comic Sans&quot;, cursive" font-weight="400"><text x="-19.5" y="8" font-size="22" transform="matrix(.75 0 0 .75 -21.317 10.983)">V</text><text x="-5.195" y="11.305" font-size="15.4" transform="matrix(.75 0 0 .75 -21.317 10.983)">o</text><text x="2.906" y="11.305" font-size="15.4" transform="matrix(.75 0 0 .75 -21.317 10.983)">u</text><text x="10.922" y="11.305" font-size="15.4" transform="matrix(.75 0 0 .75 -21.317 10.983)">t</text></g><g fill="#2463CB" stroke="none" font-family="&quot;Comic Sans MS&quot;, &quot;Comic Sans&quot;, cursive" font-weight="400"><text x="-10" y="8" font-size="22" transform="matrix(.75 0 0 .75 218.682 10.983)">I</text><text x="2.023" y="11.305" font-size="15.4" transform="matrix(.75 0 0 .75 218.682 10.983)">1</text></g><g fill="#DF4949" stroke="none" font-family="&quot;Comic Sans MS&quot;, &quot;Comic Sans&quot;, cursive" font-weight="400"><text x="-12" y="8" font-size="22" transform="matrix(.75 0 0 .75 458.684 10.983)">i</text><text x="-5.828" y="11.305" font-size="15.4" transform="matrix(.75 0 0 .75 458.684 10.983)">12</text></g><g fill="#2463CB" stroke="none" font-family="&quot;Comic Sans MS&quot;, &quot;Comic Sans&quot;, cursive" font-weight="400"><text x="-16.5" y="8" font-size="22" transform="matrix(.75 0 0 .75 -21.317 82.231)">Z</text><text x="-1.242" y="11.305" font-size="15.4" transform="matrix(.75 0 0 .75 -21.317 82.231)">e</text><text x="7.195" y="11.305" font-size="15.4" transform="matrix(.75 0 0 .75 -21.317 82.231)">q</text></g><text x="-24" y="8" fill="#DF4949" stroke="none" font-family="&quot;Comic Sans MS&quot;, &quot;Comic Sans&quot;, cursive" font-size="22" font-weight="400" transform="matrix(.75 0 0 .75 218.682 82.231)">50Ω</text><g fill="#2463CB" stroke="none" font-family="&quot;Comic Sans MS&quot;, &quot;Comic Sans&quot;, cursive" font-size="22" font-weight="400"><text x="-28.5" y="8" transform="matrix(.75 0 0 .75 458.684 82.231)">10</text><text x="-5.164" y="8" transform="matrix(.75 0 0 .75 458.684 82.231)">k</text><text x="7.406" y="8" transform="matrix(.75 0 0 .75 458.684 82.231)">Ω</text></g><g fill="#DF4949" stroke="none" font-family="&quot;Comic Sans MS&quot;, &quot;Comic Sans&quot;, cursive" font-size="22" font-weight="400"><text x="-37.5" y="8" transform="matrix(.75 0 0 .75 -21.317 153.482)">2.2</text><text x="-5.164" y="8" transform="matrix(.75 0 0 .75 -21.317 153.482)">M</text><text x="16.648" y="8" transform="matrix(.75 0 0 .75 -21.317 153.482)">Ω</text></g><g fill="#2463CB" stroke="none" font-family="&quot;Comic Sans MS&quot;, &quot;Comic Sans&quot;, cursive" font-size="22" font-weight="400"><text x="-25.5" y="8" transform="matrix(.75 0 0 .75 218.682 153.482)">10</text><text x="-2.164" y="8" transform="matrix(.75 0 0 .75 218.682 153.482)">μ</text><text x="9.281" y="8" transform="matrix(.75 0 0 .75 218.682 153.482)">F</text></g><g fill="#DF4949" stroke="none" font-family="&quot;Comic Sans MS&quot;, &quot;Comic Sans&quot;, cursive" font-size="22" font-weight="400"><text x="-35" y="8" transform="matrix(.75 0 0 .75 458.684 153.482)">220</text><text x="5.289" y="8" transform="matrix(.75 0 0 .75 458.684 153.482)">μ</text><text x="16.734" y="8" transform="matrix(.75 0 0 .75 458.684 153.482)">H</text></g><text x="-6" y="8" fill="#2463CB" stroke="none" font-family="&quot;Comic Sans MS&quot;, &quot;Comic Sans&quot;, cursive" font-size="22" font-weight="400" transform="matrix(.75 0 0 .75 -21.317 224.731)">α</text><text x="-7" y="8" fill="#DF4949" stroke="none" font-family="&quot;Comic Sans MS&quot;, &quot;Comic Sans&quot;, cursive" font-size="22" font-weight="400" transform="matrix(.75 0 0 .75 218.682 224.731)">β</text><text x="-9" y="8" fill="#2463CB" stroke="none" font-family="&quot;Comic Sans MS&quot;, &quot;Comic Sans&quot;, cursive" font-size="22" font-weight="400" transform="matrix(.75 0 0 .75 458.684 224.731)">ω</text><text x="-10.5" y="8" fill="#DF4949" stroke="none" font-family="&quot;Comic Sans MS&quot;, &quot;Comic Sans&quot;, cursive" font-size="22" font-weight="400" transform="matrix(.75 0 0 .75 -21.317 295.982)">Ω</text><g fill="#2463CB" stroke="none" font-family="&quot;Comic Sans MS&quot;, &quot;Comic Sans&quot;, cursive" font-size="22" font-weight="400"><text x="-18.5" y="8" transform="matrix(.75 0 0 .75 218.682 295.982)">Δ</text><text x="-1.016" y="8" transform="matrix(.75 0 0 .75 218.682 295.982)">V</text></g><g fill="#DF4949" stroke="none"><text x="-20.367" y="14.094" font-family="&quot;Comic Sans MS&quot;, &quot;Comic Sans&quot;, cursive" font-size="15.4" font-weight="400" transform="matrix(.75 0 0 .75 458.684 295.982)">R</text><text x="-10.688" y="15.797" font-family="&quot;Comic Sans MS&quot;, &quot;Comic Sans&quot;, cursive" font-size="11" font-weight="400" transform="matrix(.75 0 0 .75 458.684 295.982)">1</text><text x="-4.641" y="14.094" font-family="&quot;Comic Sans MS&quot;, &quot;Comic Sans&quot;, cursive" font-size="15.4" font-weight="400" transform="matrix(.75 0 0 .75 458.684 295.982)">+</text><text x="2.766" y="14.094" font-family="&quot;Comic Sans MS&quot;, &quot;Comic Sans&quot;, cursive" font-size="15.4" font-weight="400" transform="matrix(.75 0 0 .75 458.684 295.982)">R</text><text x="12.445" y="15.797" font-family="&quot;Comic Sans MS&quot;, &quot;Comic Sans&quot;, cursive" font-size="11" font-weight="400" transform="matrix(.75 0 0 .75 458.684 295.982)">2</text><text x="-16.664" y="-2.516" font-family="&quot;Comic Sans MS&quot;, &quot;Comic Sans&quot;, cursive" font-size="15.4" font-weight="400" transform="matrix(.75 0 0 .75 458.684 295.982)">R</text><text x="-6.984" y="-.813" font-family="&quot;Comic Sans MS&quot;, &quot;Comic Sans&quot;, cursive" font-size="11" font-weight="400" transform="matrix(.75 0 0 .75 458.684 295.982)">1</text><text x="-.938" y="-2.516" font-family="&quot;Comic Sans MS&quot;, &quot;Comic Sans&quot;, cursive" font-size="15.4" font-weight="400" transform="matrix(.75 0 0 .75 458.684 295.982)">R</text><text x="8.742" y="-.813" font-family="&quot;Comic Sans MS&quot;, &quot;Comic Sans&quot;, cursive" font-size="11" font-weight="400" transform="matrix(.75 0 0 .75 458.684 295.982)">2</text><path d="M443.409 296.316h30.469v.375h-30.47z"/></g><g fill="#2463CB" stroke="none" transform="matrix(.75 0 0 .75 -21.317 367.231)"><text x="-14.18" y="8" font-family="&quot;Comic Sans MS&quot;, &quot;Comic Sans&quot;, cursive" font-size="22" font-weight="400">R</text><text x="-.352" y="11.305" font-family="&quot;Comic Sans MS&quot;, &quot;Comic Sans&quot;, cursive" font-size="15.4" font-weight="400">1</text><text x="7.68" y="8" font-family="&quot;Comic Sans MS&quot;, &quot;Comic Sans&quot;, cursive" font-size="22" font-weight="400">R</text><text x="21.508" y="11.305" font-family="&quot;Comic Sans MS&quot;, &quot;Comic Sans&quot;, cursive" font-size="15.4" font-weight="400">2</text><svg width="64.508" height="23.758" x="-32.5" y="-12.109" preserveAspectRatio="xMinYMin slice" viewBox="0 0 400000 1080"><path d="M95 702c-2.7 0-7.17-2.7-13.5-8-5.8-5.3-9.5-10-9.5-14 0-2 .3-3.3 1-4 1.3-2.7 23.83-20.7 67.5-54 44.2-33.3 65.8-50.3 66.5-51 1.3-1.3 3-2 5-2 4.7 0 8.7 3.3 12 10s173 378 173 378c.7 0 35.3-71 104-213s137.5-285 206.5-429S812 97.3 814 94c5.3-9.3 12-14 20-14h399166v40H845.272L620 587l-235 486c-2.7 4.7-9 7-19 7q-9 0-12-3c-3-3-194-422-194-422zM834 80h400000v40H834z"/></svg></g><text fill="#DF4949" stroke="none" dominant-baseline="middle" font-family="&quot;Comic Sans MS&quot;, &quot;Comic Sans&quot;, cursive" font-size="22" text-anchor="middle" transform="matrix(.75 0 0 .75 218.682 367.231)">R_{</text><text fill="#2463CB" stroke="none" dominant-baseline="middle" font-family="&quot;Comic Sans MS&quot;, &quot;Comic Sans&quot;, cursive" font-size="22" text-anchor="middle" transform="matrix(.75 0 0 .75 458.684 367.231)">R__1</text><text fill="#DF4949" stroke="none" dominant-baseline="middle" font-family="&quot;Comic Sans MS&quot;, &quot;Comic Sans&quot;, cursive" font-size="22" text-anchor="middle" transform="matrix(.75 0 0 .75 -21.317 438.482)">\frac{R_1}{</text><text fill="#2463CB" stroke="none" dominant-baseline="middle" font-family="&quot;Comic Sans MS&quot;, &quot;Comic Sans&quot;, cursive" font-size="22" text-anchor="middle" transform="matrix(.75 0 0 .75 218.682 438.482)">\unknowncommand</text></g></svg>