<?xml version="1.0" encoding="UTF-8"?>
<svg xmlns="http://www.w3.org/2000/svg" viewBox="-285 -158 651.3047 310" width="651.3047" height="310"><title>&#67;&#105;&#114;&#99;&#117;&#105;&#116;&#111;&#32;&#115;&#101;&#110;&#122;&#97;&#32;&#116;&#105;&#116;&#111;&#108;&#111;</title><rect x="-285" y="-158" width="651.3047" height="310" fill="white"/><path d="M -200 -20 L -180 -20 L -200 -20 L -200 -100 L -120 -100" fill="none" stroke="#171a20" stroke-width="2" stroke-linecap="round" stroke-linejoin="round"/><path d="M -40 -100 L 40 -100" fill="none" stroke="#171a20" stroke-width="2" stroke-linecap="round" stroke-linejoin="round"/><path d="M 40 -100 L 120 -100" fill="none" stroke="#171a20" stroke-width="2" stroke-linecap="round" stroke-linejoin="round"/><path d="M 200 -100 L 280 -100 L 280 -20" fill="none" stroke="#171a20" stroke-width="2" stroke-linecap="round" stroke-linejoin="round"/><path d="M -200 60 L -200 140 L 40 140" fill="none" stroke="#171a20" stroke-width="2" stroke-linecap="round" stroke-linejoin="round"/><path d="M 280 60 L 280 140 L 40 140" fill="none" stroke="#171a20" stroke-width="2" stroke-linecap="round" stroke-linejoin="round"/><path d="M 40 -100 L 40 -20" fill="none" stroke="#171a20" stroke-width="2" stroke-linecap="round" stroke-linejoin="round"/><path d="M 40 60 L 40 140" fill="none" stroke="#171a20" stroke-width="2" stroke-linecap="round" stroke-linejoin="round"/><g transform="translate(-80 -100) rotate(0)" stroke="#171a20" stroke-width="2" fill="none" stroke-linecap="round" stroke-linejoin="round"><path d="M-40 0H-20 M20 0H40" fill="none"/><rect x="-20" y="-9" width="40" height="18" fill="white"/></g><g transform="translate(160 -100) rotate(0)" stroke="#171a20" stroke-width="2" fill="none" stroke-linecap="round" stroke-linejoin="round"><path d="M-40 0H-20 M20 0H40" fill="none"/><rect x="-20" y="-9" width="40" height="18" fill="white"/></g><g transform="translate(40 20) rotate(90)" stroke="#171a20" stroke-width="2" fill="none" stroke-linecap="round" stroke-linejoin="round"><path d="M-40 0H-20 M20 0H40" fill="none"/><rect x="-20" y="-9" width="40" height="18" fill="white"/></g><g transform="translate(-200 20) rotate(90)" stroke="#171a20" stroke-width="2" fill="none" stroke-linecap="round" stroke-linejoin="round"><path d="M-40 0H-20 M20 0H40" fill="none"/><circle cx="0" cy="0" r="20" fill="white"/><path d="M-11-5V5M-16 0H-6M7 0H15" fill="none"/></g><g transform="translate(280 20) rotate(90)" stroke="#171a20" stroke-width="2" fill="none" stroke-linecap="round" stroke-linejoin="round"><path d="M-40 0H-20 M20 0H40" fill="none"/><circle cx="0" cy="0" r="20" fill="white"/><path d="M-11-5V5M-16 0H-6M7 0H15" fill="none"/></g><circle cx="40" cy="-100" r="4.5" fill="#171a20"/><circle cx="40" cy="140" r="4.5" fill="#171a20"/><g transform="translate(-80 -130) rotate(0)" fill="#2463cb"><g transform="translate(0 0)"><text x="-11" y="8" font-family="&#34;Comic Sans MS&#34;, &#34;Comic Sans&#34;, cursive" font-size="22" font-style="normal" font-weight="400">&#82;</text><text x="2.8281" y="11.3047" font-family="&#34;Comic Sans MS&#34;, &#34;Comic Sans&#34;, cursive" font-size="15.4" font-style="normal" font-weight="400">&#49;</text></g></g><g transform="translate(160 -130) rotate(0)" fill="#2463cb"><g transform="translate(0 0)"><text x="-12" y="8" font-family="&#34;Comic Sans MS&#34;, &#34;Comic Sans&#34;, cursive" font-size="22" font-style="normal" font-weight="400">&#82;</text><text x="1.8281" y="11.3047" font-family="&#34;Comic Sans MS&#34;, &#34;Comic Sans&#34;, cursive" font-size="15.4" font-style="normal" font-weight="400">&#50;</text></g></g><g transform="translate(80 20) rotate(0)" fill="#2463cb"><g transform="translate(0 0)"><text x="-12" y="8" font-family="&#34;Comic Sans MS&#34;, &#34;Comic Sans&#34;, cursive" font-size="22" font-style="normal" font-weight="400">&#82;</text><text x="1.8281" y="11.3047" font-family="&#34;Comic Sans MS&#34;, &#34;Comic Sans&#34;, cursive" font-size="15.4" font-style="normal" font-weight="400">&#51;</text></g></g><g transform="translate(-260 20) rotate(0)" fill="#2463cb"><g transform="translate(0 0)"><text x="-11" y="8" font-family="&#34;Comic Sans MS&#34;, &#34;Comic Sans&#34;, cursive" font-size="22" font-style="normal" font-weight="400">&#86;</text><text x="3.3047" y="11.3047" font-family="&#34;Comic Sans MS&#34;, &#34;Comic Sans&#34;, cursive" font-size="15.4" font-style="normal" font-weight="400">&#49;</text></g></g><g transform="translate(340 20) rotate(0)" fill="#2463cb"><g transform="translate(0 0)"><text x="-12.5" y="8" font-family="&#34;Comic Sans MS&#34;, &#34;Comic Sans&#34;, cursive" font-size="22" font-style="normal" font-weight="400">&#86;</text><text x="1.8047" y="11.3047" font-family="&#34;Comic Sans MS&#34;, &#34;Comic Sans&#34;, cursive" font-size="15.4" font-style="normal" font-weight="400">&#50;</text></g></g></svg>