<?xml version="1.0" encoding="UTF-8"?>
<svg xmlns="http://www.w3.org/2000/svg" viewBox="-240.7773 -198 560.3438 407" width="560.3438" height="407"><title>&#67;&#105;&#114;&#99;&#117;&#105;&#116;&#111;&#32;&#115;&#101;&#110;&#122;&#97;&#32;&#116;&#105;&#116;&#111;&#108;&#111;</title><rect x="-240.7773" y="-198" width="560.3438" height="407" fill="white"/><path d="M -200 20 L -160 20 L -120 20" fill="none" stroke="#171a20" stroke-width="2" stroke-linecap="round" stroke-linejoin="round"/><path d="M 200 20 L 280 20" fill="none" stroke="#171a20" stroke-width="2" stroke-linecap="round" stroke-linejoin="round"/><path d="M -120 -140 L -120 20" fill="none" stroke="#171a20" stroke-width="2" stroke-linecap="round" stroke-linejoin="round"/><path d="M 200 -140 L 200 20" fill="none" stroke="#171a20" stroke-width="2" stroke-linecap="round" stroke-linejoin="round"/><path d="M -120 20 L -120 180" fill="none" stroke="#171a20" stroke-width="2" stroke-linecap="round" stroke-linejoin="round"/><path d="M 200 20 L 200 180" fill="none" stroke="#171a20" stroke-width="2" stroke-linecap="round" stroke-linejoin="round"/><path d="M -120 -140 L 0 -140" fill="none" stroke="#171a20" stroke-width="2" stroke-linecap="round" stroke-linejoin="round"/><path d="M 80 -140 L 200 -140" fill="none" stroke="#171a20" stroke-width="2" stroke-linecap="round" stroke-linejoin="round"/><path d="M -120 20 L 0 20" fill="none" stroke="#171a20" stroke-width="2" stroke-linecap="round" stroke-linejoin="round"/><path d="M 80 20 L 200 20" fill="none" stroke="#171a20" stroke-width="2" stroke-linecap="round" stroke-linejoin="round"/><path d="M -120 180 L 0 180" fill="none" stroke="#171a20" stroke-width="2" stroke-linecap="round" stroke-linejoin="round"/><path d="M 80 180 L 200 180" fill="none" stroke="#171a20" stroke-width="2" stroke-linecap="round" stroke-linejoin="round"/><g transform="translate(40 -140) rotate(0)" stroke="#171a20" stroke-width="2" fill="none" stroke-linecap="round" stroke-linejoin="round"><path d="M-40 0H-20 M20 0H40" fill="none"/><rect x="-20" y="-9" width="40" height="18" fill="white"/></g><g transform="translate(40 20) rotate(0)" stroke="#171a20" stroke-width="2" fill="none" stroke-linecap="round" stroke-linejoin="round"><path d="M-40 0H-24 C-24-18-12-18-12 0 C-12-18 0-18 0 0 C0-18 12-18 12 0 C12-18 24-18 24 0 H40" fill="none"/></g><g transform="translate(40 180) rotate(0)" stroke="#171a20" stroke-width="2" fill="none" stroke-linecap="round" stroke-linejoin="round"><path d="M-40 0H-6M6 0H40M-6-17V17M6-17V17" fill="none"/></g><circle cx="-200" cy="20" r="4.5" fill="#171a20"/><circle cx="280" cy="20" r="4.5" fill="#171a20"/><circle cx="-120" cy="-140" r="4.5" fill="#171a20"/><circle cx="200" cy="-140" r="4.5" fill="#171a20"/><circle cx="-120" cy="20" r="4.5" fill="#171a20"/><circle cx="200" cy="20" r="4.5" fill="#171a20"/><circle cx="-120" cy="180" r="4.5" fill="#171a20"/><circle cx="200" cy="180" r="4.5" fill="#171a20"/><g transform="translate(40 -170) rotate(0)" fill="#2463cb"><g transform="translate(0 0)"><text x="-11" y="8" font-family="&#34;Comic Sans MS&#34;, &#34;Comic Sans&#34;, cursive" font-size="22" font-style="normal" font-weight="400">&#82;</text><text x="2.8281" y="11.3047" font-family="&#34;Comic Sans MS&#34;, &#34;Comic Sans&#34;, cursive" font-size="15.4" font-style="normal" font-weight="400">&#49;</text></g></g><g transform="translate(40 -10) rotate(0)" fill="#2463cb"><g transform="translate(0 0)"><text x="-10" y="8" font-family="&#34;Comic Sans MS&#34;, &#34;Comic Sans&#34;, cursive" font-size="22" font-style="normal" font-weight="400">&#76;</text><text x="2.1172" y="11.3047" font-family="&#34;Comic Sans MS&#34;, &#34;Comic Sans&#34;, cursive" font-size="15.4" font-style="normal" font-weight="400">&#49;</text></g></g><g transform="translate(40 150) rotate(0)" fill="#2463cb"><g transform="translate(0 0)"><text x="-10.5" y="8" font-family="&#34;Comic Sans MS&#34;, &#34;Comic Sans&#34;, cursive" font-size="22" font-style="normal" font-weight="400">&#67;</text><text x="2.7578" y="11.3047" font-family="&#34;Comic Sans MS&#34;, &#34;Comic Sans&#34;, cursive" font-size="15.4" font-style="normal" font-weight="400">&#49;</text></g></g><g transform="translate(-220 -20) rotate(0)" fill="#df4949"><g transform="translate(0 0)"><text text-anchor="middle" dominant-baseline="middle" font-family="&#34;Comic Sans MS&#34;, &#34;Comic Sans&#34;, cursive" font-size="24">&#65;</text></g></g><g transform="translate(300 -20) rotate(0)" fill="#df4949"><g transform="translate(0 0)"><text text-anchor="middle" dominant-baseline="middle" font-family="&#34;Comic Sans MS&#34;, &#34;Comic Sans&#34;, cursive" font-size="24">&#66;</text></g></g></svg>