<?xml version="1.0" encoding="UTF-8"?>
<svg xmlns="http://www.w3.org/2000/svg" viewBox="-299.6 -6.55 307.4219 492.4375" width="307.4219" height="492.4375"><title>&#67;&#105;&#114;&#99;&#117;&#105;&#116;&#111;&#32;&#115;&#101;&#110;&#122;&#97;&#32;&#116;&#105;&#116;&#111;&#108;&#111;</title><rect x="-299.6" y="-6.55" width="307.4219" height="492.4375" fill="white"/><path d="M -127.6 81.44999999999999 L -47.599999999999994 81.44999999999999 L -87.6 81.44999999999999 L -87.6 161.45 L -47.599999999999994 161.45 L -47.599999999999994 201.45" fill="none" stroke="#171a20" stroke-width="2" stroke-linecap="round" stroke-linejoin="round"/><path d="M -47.599999999999994 281.45 L -47.599999999999994 401.45 L -127.6 401.45" fill="none" stroke="#171a20" stroke-width="2" stroke-linecap="round" stroke-linejoin="round"/><path d="M -207.6 401.45 L -287.6 401.45 L -287.6 81.44999999999999 L -207.6 81.44999999999999" fill="none" stroke="#171a20" stroke-width="2" stroke-linecap="round" stroke-linejoin="round"/><g transform="translate(-167.6 81.45) rotate(180)" stroke="#171a20" stroke-width="2" fill="none" stroke-linecap="round" stroke-linejoin="round"><path d="M-40 0H-20 M20 0H40" fill="none"/><circle cx="0" cy="0" r="20" fill="white"/><path d="M-11-5V5M-16 0H-6M7 0H15" fill="none"/></g><g transform="translate(-47.6 241.45) rotate(90)" stroke="#171a20" stroke-width="2" fill="none" stroke-linecap="round" stroke-linejoin="round"><path d="M-40 0H-20 M20 0H40" fill="none"/><rect x="-20" y="-9" width="40" height="18" fill="white"/></g><g transform="translate(-167.6 401.45) rotate(180)" stroke="#171a20" stroke-width="2" fill="none" stroke-linecap="round" stroke-linejoin="round"><path d="M-40 0H-20 M20 0H40" fill="none"/><rect x="-24" y="-20" width="48" height="40" fill="white"/><text x="0" y="0" dominant-baseline="middle" text-anchor="middle" stroke="none" fill="#171a20" font-family="&quot;Comic Sans MS&quot;, &quot;Comic Sans&quot;, cursive" font-size="13"></text></g><g transform="translate(-167.6 21.45) rotate(0)" fill="#2463cb"><g transform="translate(0 0)"><text x="-11.5" y="8" font-family="&#34;Comic Sans MS&#34;, &#34;Comic Sans&#34;, cursive" font-size="22" font-style="normal" font-weight="400">&#86;</text><text x="2.8047" y="11.3047" font-family="&#34;Comic Sans MS&#34;, &#34;Comic Sans&#34;, cursive" font-size="15.4" font-style="normal" font-weight="400">&#115;</text></g></g><g transform="translate(-17.6 241.45) rotate(0)" fill="#2463cb"><g transform="translate(0 0)"><text x="-11" y="8" font-family="&#34;Comic Sans MS&#34;, &#34;Comic Sans&#34;, cursive" font-size="22" font-style="normal" font-weight="400">&#82;</text><text x="2.8281" y="11.3047" font-family="&#34;Comic Sans MS&#34;, &#34;Comic Sans&#34;, cursive" font-size="15.4" font-style="normal" font-weight="400">&#115;</text></g></g><g transform="translate(-167.6 461.45) rotate(0)" fill="#2463cb"><g transform="translate(0 0)"><text text-anchor="middle" dominant-baseline="middle" font-family="&#34;Comic Sans MS&#34;, &#34;Comic Sans&#34;, cursive" font-size="22">&#76;&#79;&#65;&#68;</text></g></g></svg>